<svg xmlns="http://www.w3.org/2000/svg" viewBox="0 0 900 600" font-family="Inter, sans-serif">
  <rect width="900" height="600" fill="#fff"/>

  <!-- Navbar -->
  <rect x="0" y="0" width="900" height="56" fill="#fff"/>
  <line x1="0" y1="56" x2="900" y2="56" stroke="#d4d4d4" stroke-width="1"/>
  <rect x="16" y="14" width="28" height="28" rx="6" fill="#1a1a1a"/>
  <text x="20" y="33" font-size="12" font-weight="bold" fill="#fff">T</text>
  <text x="52" y="34" font-size="16" font-weight="bold" fill="#1a1a1a">Ticketify</text>

  <!-- Nav links -->
  <rect x="148" y="14" width="80" height="28" rx="6" fill="#1a1a1a"/>
  <text x="162" y="33" font-size="11" fill="#fff">Dashboard</text>
  <rect x="232" y="14" width="76" height="28" rx="6" fill="none" stroke="#d4d4d4" stroke-width="1"/>
  <text x="244" y="33" font-size="11" fill="#666">Published</text>
  <rect x="312" y="14" width="66" height="28" rx="6" fill="none" stroke="#d4d4d4" stroke-width="1"/>
  <text x="324" y="33" font-size="11" fill="#666">Pending</text>
  <rect x="382" y="14" width="56" height="28" rx="6" fill="none" stroke="#d4d4d4" stroke-width="1"/>
  <text x="392" y="33" font-size="11" fill="#666">Users</text>
  <rect x="442" y="14" width="54" height="28" rx="6" fill="none" stroke="#d4d4d4" stroke-width="1"/>
  <text x="452" y="33" font-size="11" fill="#666">Roles</text>
  <rect x="500" y="14" width="82" height="28" rx="6" fill="none" stroke="#d4d4d4" stroke-width="1"/>
  <text x="514" y="33" font-size="11" fill="#666">Categories</text>
  <rect x="586" y="14" width="64" height="28" rx="6" fill="none" stroke="#d4d4d4" stroke-width="1"/>
  <text x="598" y="33" font-size="11" fill="#666">Statistik</text>

  <!-- Profile right -->
  <circle cx="828" cy="28" r="16" fill="#e5e5e5"/>
  <text x="823" y="33" font-size="10" fill="#666">⚙</text>
  <circle cx="864" cy="28" r="14" fill="#d4d4d4"/>
  <text x="859" y="33" font-size="9" fill="#666">A</text>

  <!-- Page title -->
  <text x="32" y="96" font-size="20" font-weight="bold" fill="#1a1a1a">Dashboard</text>
  <line x1="32" y1="104" x2="120" y2="104" stroke="#1a1a1a" stroke-width="2"/>

  <!-- Stats cards -->
  <rect x="32" y="120" width="260" height="80" rx="8" fill="none" stroke="#d4d4d4" stroke-width="1"/>
  <rect x="32" y="120" width="260" height="80" rx="8" fill="#f5f5f5"/>
  <text x="52" y="150" font-size="11" fill="#666">Published Events</text>
  <text x="52" y="180" font-size="28" font-weight="bold" fill="#1a1a1a">24</text>

  <rect x="308" y="120" width="260" height="80" rx="8" fill="none" stroke="#d4d4d4" stroke-width="1"/>
  <rect x="308" y="120" width="260" height="80" rx="8" fill="#f5f5f5"/>
  <text x="328" y="150" font-size="11" fill="#666">Pending Events</text>
  <text x="328" y="180" font-size="28" font-weight="bold" fill="#1a1a1a">7</text>

  <rect x="584" y="120" width="260" height="80" rx="8" fill="none" stroke="#d4d4d4" stroke-width="1"/>
  <rect x="584" y="120" width="260" height="80" rx="8" fill="#f5f5f5"/>
  <text x="604" y="150" font-size="11" fill="#666">Total Users</text>
  <text x="604" y="180" font-size="28" font-weight="bold" fill="#1a1a1a">156</text>

  <!-- Bar chart -->
  <rect x="32" y="220" width="410" height="200" rx="8" fill="none" stroke="#d4d4d4" stroke-width="1"/>
  <text x="52" y="248" font-size="12" font-weight="bold" fill="#1a1a1a">Events by Category</text>
  <rect x="80" y="370" width="30" height="30" rx="2" fill="#a3a3a3"/>
  <rect x="130" y="340" width="30" height="60" rx="2" fill="#a3a3a3"/>
  <rect x="180" y="350" width="30" height="50" rx="2" fill="#a3a3a3"/>
  <rect x="230" y="320" width="30" height="80" rx="2" fill="#a3a3a3"/>
  <rect x="280" y="360" width="30" height="40" rx="2" fill="#a3a3a3"/>
  <rect x="330" y="300" width="30" height="100" rx="2" fill="#a3a3a3"/>
  <line x1="60" y1="390" x2="380" y2="390" stroke="#e5e5e5" stroke-width="1"/>

  <!-- Pie chart -->
  <rect x="460" y="220" width="410" height="200" rx="8" fill="none" stroke="#d4d4d4" stroke-width="1"/>
  <text x="480" y="248" font-size="12" font-weight="bold" fill="#1a1a1a">Event Ratio</text>
  <circle cx="620" cy="330" r="50" fill="none" stroke="#a3a3a3" stroke-width="18" stroke-dasharray="220 94"/>
  <circle cx="620" cy="330" r="50" fill="none" stroke="#d4d4d4" stroke-width="18" stroke-dasharray="0 0 94 220" stroke-dashoffset="-50"/>
  <rect x="550" y="400" width="8" height="8" fill="#a3a3a3"/>
  <text x="564" y="408" font-size="10" fill="#666">Published</text>
  <rect x="630" y="400" width="8" height="8" fill="#d4d4d4"/>
  <text x="644" y="408" font-size="10" fill="#666">Pending</text>

  <!-- Recent lists -->
  <rect x="32" y="440" width="410" height="140" rx="8" fill="none" stroke="#d4d4d4" stroke-width="1"/>
  <text x="52" y="468" font-size="12" font-weight="bold" fill="#1a1a1a">Recent Pending Events</text>
  <line x1="52" y1="476" x2="422" y2="476" stroke="#e5e5e5" stroke-width="1"/>
  <rect x="52" y="484" width="370" height="24" fill="#fafafa"/><text x="60" y="500" font-size="11" fill="#666">• Tech Seminar 2026</text>
  <rect x="52" y="512" width="370" height="24" fill="#fafafa"/><text x="60" y="528" font-size="11" fill="#666">• Art Exhibition</text>
  <rect x="52" y="540" width="370" height="24" fill="#fafafa"/><text x="60" y="556" font-size="11" fill="#666">• Music Festival</text>

  <rect x="460" y="440" width="410" height="140" rx="8" fill="none" stroke="#d4d4d4" stroke-width="1"/>
  <text x="480" y="468" font-size="12" font-weight="bold" fill="#1a1a1a">Recent Published Events</text>
  <line x1="480" y1="476" x2="850" y2="476" stroke="#e5e5e5" stroke-width="1"/>
  <rect x="480" y="484" width="370" height="24" fill="#fafafa"/><text x="488" y="500" font-size="11" fill="#666">• Workshop AI</text>
  <rect x="480" y="512" width="370" height="24" fill="#fafafa"/><text x="488" y="528" font-size="11" fill="#666">• Campus Expo</text>
  <rect x="480" y="540" width="370" height="24" fill="#fafafa"/><text x="488" y="556" font-size="11" fill="#666">• Photography Class</text>
</svg>