<svg xmlns="http://www.w3.org/2000/svg" viewBox="0 0 900 600" font-family="Inter, sans-serif">
  <rect width="900" height="600" fill="#fff"/>
  <rect x="0" y="0" width="900" height="56" fill="#fff"/>
  <line x1="0" y1="56" x2="900" y2="56" stroke="#d4d4d4" stroke-width="1"/>
  <rect x="16" y="14" width="28" height="28" rx="6" fill="#1a1a1a"/><text x="20" y="33" font-size="12" font-weight="bold" fill="#fff">T</text>
  <text x="52" y="34" font-size="16" font-weight="bold" fill="#1a1a1a">Ticketify</text>
  <rect x="148" y="14" width="80" height="28" rx="6" fill="none" stroke="#d4d4d4" stroke-width="1"/><text x="158" y="33" font-size="11" fill="#666">Dashboard</text>
  <rect x="232" y="14" width="76" height="28" rx="6" fill="none" stroke="#d4d4d4" stroke-width="1"/><text x="244" y="33" font-size="11" fill="#666">Published</text>
  <rect x="312" y="14" width="66" height="28" rx="6" fill="#1a1a1a"/><text x="324" y="33" font-size="11" fill="#fff">Pending</text>
  <rect x="382" y="14" width="56" height="28" rx="6" fill="none" stroke="#d4d4d4" stroke-width="1"/><text x="392" y="33" font-size="11" fill="#666">Users</text>
  <rect x="442" y="14" width="54" height="28" rx="6" fill="none" stroke="#d4d4d4" stroke-width="1"/><text x="452" y="33" font-size="11" fill="#666">Roles</text>
  <rect x="500" y="14" width="82" height="28" rx="6" fill="none" stroke="#d4d4d4" stroke-width="1"/><text x="514" y="33" font-size="11" fill="#666">Categories</text>
  <rect x="586" y="14" width="64" height="28" rx="6" fill="none" stroke="#d4d4d4" stroke-width="1"/><text x="598" y="33" font-size="11" fill="#666">Statistik</text>
  <circle cx="828" cy="28" r="16" fill="#e5e5e5"/><text x="823" y="33" font-size="10" fill="#666">⚙</text>
  <circle cx="864" cy="28" r="14" fill="#d4d4d4"/><text x="859" y="33" font-size="9" fill="#666">A</text>

  <text x="32" y="96" font-size="20" font-weight="bold" fill="#1a1a1a">Pending Events</text>
  <line x1="32" y1="104" x2="120" y2="104" stroke="#1a1a1a" stroke-width="2"/>
  <rect x="32" y="120" width="140" height="32" rx="6" fill="none" stroke="#d4d4d4" stroke-width="1"/>
  <text x="46" y="141" font-size="11" fill="#666">▼ All Categories</text>

  <rect x="32" y="168" width="260" height="240" rx="8" fill="none" stroke="#d4d4d4" stroke-width="1"/>
  <rect x="32" y="168" width="260" height="100" rx="8" fill="#e5e5e5"/>
  <text x="52" y="296" font-size="13" font-weight="bold" fill="#1a1a1a">Music Festival</text>
  <text x="52" y="316" font-size="10" fill="#666">📍 10 Agu 2026 · 18:00 WIB</text>
  <text x="52" y="334" font-size="10" fill="#666">🏛 Lapangan</text>
  <text x="52" y="360" font-size="14" font-weight="bold" fill="#1a1a1a">Rp 100.000</text>
  <rect x="52" y="374" width="74" height="26" rx="6" fill="#e5e5e5"/><text x="64" y="391" font-size="10" fill="#666">Detail</text>
  <rect x="134" y="374" width="74" height="26" rx="6" fill="#d4d4d4"/><text x="144" y="391" font-size="10" fill="#666">✓ Setujui</text>
  <rect x="216" y="374" width="66" height="26" rx="6" fill="#a3a3a3"/><text x="224" y="391" font-size="10" fill="#fff">✕ Tolak</text>

  <rect x="308" y="168" width="260" height="240" rx="8" fill="none" stroke="#d4d4d4" stroke-width="1"/>
  <rect x="308" y="168" width="260" height="100" rx="8" fill="#e5e5e5"/>
  <text x="328" y="296" font-size="13" font-weight="bold" fill="#1a1a1a">Art Exhibition</text>
  <text x="328" y="316" font-size="10" fill="#666">📍 15 Agu 2026 · 08:00 WIB</text>
  <text x="328" y="334" font-size="10" fill="#666">🏛 Gedung B</text>
  <text x="328" y="360" font-size="14" font-weight="bold" fill="#1a1a1a">Gratis</text>
  <rect x="328" y="374" width="74" height="26" rx="6" fill="#e5e5e5"/><text x="340" y="391" font-size="10" fill="#666">Detail</text>
  <rect x="410" y="374" width="74" height="26" rx="6" fill="#d4d4d4"/><text x="420" y="391" font-size="10" fill="#666">✓ Setujui</text>
  <rect x="492" y="374" width="66" height="26" rx="6" fill="#a3a3a3"/><text x="500" y="391" font-size="10" fill="#fff">✕ Tolak</text>

  <rect x="584" y="168" width="260" height="240" rx="8" fill="none" stroke="#d4d4d4" stroke-width="1"/>
  <rect x="584" y="168" width="260" height="100" rx="8" fill="#e5e5e5"/>
  <text x="604" y="296" font-size="13" font-weight="bold" fill="#1a1a1a">Coding Workshop</text>
  <text x="604" y="316" font-size="10" fill="#666">📍 20 Agu 2026 · 09:00 WIB</text>
  <text x="604" y="334" font-size="10" fill="#666">🏛 Lab Komputer</text>
  <text x="604" y="360" font-size="14" font-weight="bold" fill="#1a1a1a">Rp 25.000</text>
  <rect x="604" y="374" width="74" height="26" rx="6" fill="#e5e5e5"/><text x="616" y="391" font-size="10" fill="#666">Detail</text>
  <rect x="686" y="374" width="74" height="26" rx="6" fill="#d4d4d4"/><text x="696" y="391" font-size="10" fill="#666">✓ Setujui</text>
  <rect x="768" y="374" width="66" height="26" rx="6" fill="#a3a3a3"/><text x="776" y="391" font-size="10" fill="#fff">✕ Tolak</text>

  <!-- Approve Modal -->
  <rect x="300" y="200" width="300" height="180" rx="12" fill="#fff" stroke="#d4d4d4" stroke-width="1" filter="url(#s)"/>
  <defs><filter id="s"><feDropShadow dx="0" dy="4" stdDeviation="8" flood-opacity="0.12"/></filter></defs>
  <circle cx="450" cy="230" r="24" fill="#e5e5e5"/>
  <text x="444" y="237" font-size="20" fill="#666">✓</text>
  <text x="370" y="274" font-size="14" font-weight="bold" fill="#1a1a1a">Setujui Event?</text>
  <text x="360" y="294" font-size="11" fill="#666">Event akan dipublikasikan.</text>
  <rect x="320" y="318" width="110" height="32" rx="6" fill="#e5e5e5"/><text x="356" y="339" font-size="11" fill="#666">Batal</text>
  <rect x="440" y="318" width="110" height="32" rx="6" fill="#1a1a1a"/><text x="472" y="339" font-size="11" fill="#fff">Setujui</text>

  <!-- Reject Modal -->
  <rect x="290" y="190" width="320" height="210" rx="12" fill="#fff" stroke="#d4d4d4" stroke-width="1"/>
  <circle cx="324" cy="216" r="16" fill="#e5e5e5"/>
  <text x="320" y="222" font-size="14" fill="#666">!</text>
  <text x="352" y="222" font-size="14" font-weight="bold" fill="#1a1a1a">Tolak Event</text>
  <text x="310" y="244" font-size="10" fill="#666">Berikan alasan penolakan</text>
  <rect x="310" y="256" width="280" height="56" rx="6" fill="none" stroke="#d4d4d4" stroke-width="1"/>
  <text x="322" y="278" font-size="10" fill="#999">Alasan penolakan...</text>
  <rect x="310" y="320" width="110" height="32" rx="6" fill="#e5e5e5"/><text x="346" y="341" font-size="11" fill="#666">Batal</text>
  <rect x="430" y="320" width="110" height="32" rx="6" fill="#1a1a1a"/><text x="466" y="341" font-size="11" fill="#fff">Tolak</text>
</svg>