<svg xmlns="http://www.w3.org/2000/svg" viewBox="0 0 900 600" font-family="Inter, sans-serif">
  <rect width="900" height="600" fill="#fff"/>
  <rect x="0" y="0" width="900" height="56" fill="#fff"/>
  <line x1="0" y1="56" x2="900" y2="56" stroke="#d4d4d4" stroke-width="1"/>
  <rect x="16" y="14" width="28" height="28" rx="6" fill="#1a1a1a"/><text x="20" y="33" font-size="12" font-weight="bold" fill="#fff">T</text>
  <text x="52" y="34" font-size="16" font-weight="bold" fill="#1a1a1a">Ticketify</text>
  <rect x="148" y="14" width="80" height="28" rx="6" fill="none" stroke="#d4d4d4" stroke-width="1"/><text x="158" y="33" font-size="11" fill="#666">Dashboard</text>
  <rect x="232" y="14" width="76" height="28" rx="6" fill="none" stroke="#d4d4d4" stroke-width="1"/><text x="244" y="33" font-size="11" fill="#666">Published</text>
  <rect x="312" y="14" width="66" height="28" rx="6" fill="none" stroke="#d4d4d4" stroke-width="1"/><text x="324" y="33" font-size="11" fill="#666">Pending</text>
  <rect x="382" y="14" width="56" height="28" rx="6" fill="none" stroke="#d4d4d4" stroke-width="1"/><text x="392" y="33" font-size="11" fill="#666">Users</text>
  <rect x="442" y="14" width="54" height="28" rx="6" fill="none" stroke="#d4d4d4" stroke-width="1"/><text x="452" y="33" font-size="11" fill="#666">Roles</text>
  <rect x="500" y="14" width="82" height="28" rx="6" fill="none" stroke="#d4d4d4" stroke-width="1"/><text x="514" y="33" font-size="11" fill="#666">Categories</text>
  <rect x="586" y="14" width="64" height="28" rx="6" fill="#1a1a1a"/><text x="598" y="33" font-size="11" fill="#fff">Statistik</text>
  <circle cx="828" cy="28" r="16" fill="#e5e5e5"/><text x="823" y="33" font-size="10" fill="#666">⚙</text>
  <circle cx="864" cy="28" r="14" fill="#d4d4d4"/><text x="859" y="33" font-size="9" fill="#666">A</text>

  <text x="32" y="96" font-size="20" font-weight="bold" fill="#1a1a1a">Statistik Event</text>
  <line x1="32" y1="104" x2="120" y2="104" stroke="#1a1a1a" stroke-width="2"/>

  <rect x="32" y="120" width="220" height="32" rx="6" fill="none" stroke="#d4d4d4" stroke-width="1"/>
  <text x="46" y="141" font-size="11" fill="#999">🔍 Cari event...</text>
  <rect x="268" y="120" width="60" height="32" rx="6" fill="#1a1a1a"/><text x="282" y="141" font-size="11" fill="#fff">All</text>
  <rect x="336" y="120" width="70" height="32" rx="6" fill="none" stroke="#d4d4d4" stroke-width="1"/><text x="350" y="141" font-size="11" fill="#666">Active</text>
  <rect x="414" y="120" width="70" height="32" rx="6" fill="none" stroke="#d4d4d4" stroke-width="1"/><text x="428" y="141" font-size="11" fill="#666">Pending</text>
  <rect x="492" y="120" width="76" height="32" rx="6" fill="none" stroke="#d4d4d4" stroke-width="1"/><text x="506" y="141" font-size="11" fill="#666">Rejected</text>

  <!-- Cards -->
  <rect x="32" y="170" width="410" height="140" rx="8" fill="none" stroke="#d4d4d4" stroke-width="1"/>
  <rect x="32" y="170" width="100" height="140" rx="8" fill="#e5e5e5"/>
  <text x="148" y="196" font-size="13" font-weight="bold" fill="#1a1a1a">Workshop AI</text>
  <rect x="148" y="204" width="60" height="20" rx="4" fill="#e5e5e5"/><text x="162" y="218" font-size="9" fill="#666">Active</text>
  <text x="148" y="242" font-size="10" fill="#666">📍 15 Jul 2026</text>
  <rect x="148" y="258" width="280" height="8" rx="4" fill="#e5e5e5"/>
  <rect x="148" y="258" width="180" height="8" rx="4" fill="#1a1a1a"/>
  <text x="148" y="284" font-size="10" fill="#666">Terjual: 45/100 tiket</text>
  <rect x="148" y="292" width="80" height="24" rx="6" fill="#d4d4d4"/><text x="160" y="308" font-size="10" fill="#666">STATISTIK</text>

  <rect x="460" y="170" width="410" height="140" rx="8" fill="none" stroke="#d4d4d4" stroke-width="1"/>
  <rect x="460" y="170" width="100" height="140" rx="8" fill="#e5e5e5"/>
  <text x="576" y="196" font-size="13" font-weight="bold" fill="#1a1a1a">Campus Expo</text>
  <rect x="576" y="204" width="60" height="20" rx="4" fill="#d4d4d4"/><text x="588" y="218" font-size="9" fill="#666">Pending</text>
  <text x="576" y="242" font-size="10" fill="#666">📍 20 Jul 2026</text>
  <rect x="576" y="258" width="280" height="8" rx="4" fill="#e5e5e5"/>
  <text x="576" y="284" font-size="10" fill="#666">Terjual: 0/50 tiket</text>
  <rect x="576" y="292" width="80" height="24" rx="6" fill="#d4d4d4"/><text x="588" y="308" font-size="10" fill="#666">STATISTIK</text>

  <rect x="32" y="326" width="410" height="140" rx="8" fill="none" stroke="#d4d4d4" stroke-width="1"/>
  <rect x="32" y="326" width="100" height="140" rx="8" fill="#e5e5e5"/>
  <text x="148" y="352" font-size="13" font-weight="bold" fill="#1a1a1a">Music Festival</text>
  <rect x="148" y="360" width="66" height="20" rx="4" fill="#a3a3a3"/><text x="158" y="374" font-size="9" fill="#fff">Rejected</text>
  <text x="148" y="398" font-size="10" fill="#666">📍 10 Agu 2026</text>
  <rect x="148" y="414" width="280" height="8" rx="4" fill="#e5e5e5"/>
  <text x="148" y="440" font-size="10" fill="#666">Terjual: 0/200 tiket</text>
  <rect x="148" y="448" width="80" height="24" rx="6" fill="#d4d4d4"/><text x="160" y="464" font-size="10" fill="#666">STATISTIK</text>
</svg>