<svg xmlns="http://www.w3.org/2000/svg" viewBox="0 0 800 600" font-family="Inter, sans-serif">
  <rect width="800" height="600" fill="#fff"/>
  <rect x="0" y="0" width="180" height="600" fill="#1e293b"/>
  <rect x="12" y="12" width="156" height="24" rx="4" fill="#334155"/>
  <text x="24" y="29" font-size="11" fill="#94a3b8">☰  Ticketify</text>
  <rect x="12" y="52" width="156" height="28" rx="4" fill="none" stroke="#334155" stroke-width="1"/>
  <text x="24" y="70" font-size="11" fill="#94a3b8">■  Dashboard</text>
  <rect x="12" y="86" width="156" height="28" rx="4" fill="none" stroke="#334155" stroke-width="1"/>
  <text x="24" y="104" font-size="11" fill="#94a3b8">■  Published</text>
  <rect x="12" y="120" width="156" height="28" rx="4" fill="none" stroke="#334155" stroke-width="1"/>
  <text x="24" y="138" font-size="11" fill="#94a3b8">■  Pending</text>
  <rect x="12" y="154" width="156" height="28" rx="4" fill="none" stroke="#334155" stroke-width="1"/>
  <text x="24" y="172" font-size="11" fill="#94a3b8">■  Users</text>
  <rect x="12" y="188" width="156" height="28" rx="4" fill="none" stroke="#334155" stroke-width="1"/>
  <text x="24" y="206" font-size="11" fill="#94a3b8">■  Roles</text>
  <rect x="12" y="222" width="156" height="28" rx="4" fill="none" stroke="#334155" stroke-width="1"/>
  <text x="24" y="240" font-size="11" fill="#94a3b8">■  Categories</text>
  <rect x="12" y="256" width="156" height="28" rx="4" fill="#3b82f6"/>
  <text x="24" y="274" font-size="11" fill="#fff">■  Statistik</text>

  <!-- Top bar -->
  <rect x="180" y="0" width="620" height="48" fill="#f8fafc"/>
  <line x1="180" y1="48" x2="800" y2="48" stroke="#e2e8f0" stroke-width="1"/>
  <text x="196" y="24" font-size="11" fill="#64748b">← Kembali ke Daftar</text>
  <text x="196" y="40" font-size="15" font-weight="bold" fill="#1e293b">Statistik — Workshop AI</text>

  <!-- Summary cards -->
  <rect x="196" y="60" width="140" height="70" rx="8" fill="#f0fdf4" stroke="#bbf7d0" stroke-width="1"/>
  <text x="208" y="80" font-size="9" fill="#16a34a">Total Pendapatan</text>
  <text x="208" y="112" font-size="16" font-weight="bold" fill="#15803d">Rp 4.500.000</text>

  <rect x="348" y="60" width="140" height="70" rx="8" fill="#eff6ff" stroke="#bfdbfe" stroke-width="1"/>
  <text x="360" y="80" font-size="9" fill="#2563eb">Tiket Terjual</text>
  <text x="360" y="104" font-size="16" font-weight="bold" fill="#1d4ed8">45</text>
  <text x="360" y="118" font-size="9" fill="#64748b">/ 100 stok</text>

  <rect x="500" y="60" width="140" height="70" rx="8" fill="#fffbeb" stroke="#fde68a" stroke-width="1"/>
  <text x="512" y="80" font-size="9" fill="#d97706">Kehadiran</text>
  <text x="512" y="104" font-size="16" font-weight="bold" fill="#b45309">30</text>
  <text x="512" y="118" font-size="9" fill="#64748b">66.7%</text>

  <rect x="652" y="60" width="140" height="70" rx="8" fill="#f8fafc" stroke="#e2e8f0" stroke-width="1"/>
  <text x="664" y="80" font-size="9" fill="#64748b">Penyelenggara</text>
  <text x="664" y="104" font-size="13" font-weight="bold" fill="#1e293b">Ahmad Fauzi</text>
  <text x="664" y="118" font-size="9" fill="#64748b">Panitia</text>

  <!-- Line chart -->
  <rect x="196" y="144" width="290" height="210" rx="8" fill="#f8fafc" stroke="#e2e8f0" stroke-width="1"/>
  <text x="212" y="168" font-size="11" font-weight="bold" fill="#475569">Tren Penjualan 7 Hari</text>
  <line x1="220" y1="320" x2="460" y2="320" stroke="#e2e8f0" stroke-width="1"/>
  <line x1="220" y1="320" x2="220" y2="180" stroke="#e2e8f0" stroke-width="1"/>
  <polyline points="230,300 260,280 290,290 320,260 350,240 380,250 410,220" fill="none" stroke="#3b82f6" stroke-width="2"/>
  <circle cx="230" cy="300" r="3" fill="#3b82f6"/>
  <circle cx="260" cy="280" r="3" fill="#3b82f6"/>
  <circle cx="290" cy="290" r="3" fill="#3b82f6"/>
  <circle cx="320" cy="260" r="3" fill="#3b82f6"/>
  <circle cx="350" cy="240" r="3" fill="#3b82f6"/>
  <circle cx="380" cy="250" r="3" fill="#3b82f6"/>
  <circle cx="410" cy="220" r="3" fill="#3b82f6"/>

  <!-- Donut chart -->
  <rect x="500" y="144" width="290" height="210" rx="8" fill="#f8fafc" stroke="#e2e8f0" stroke-width="1"/>
  <text x="516" y="168" font-size="11" font-weight="bold" fill="#475569">Kategori Tiket</text>
  <circle cx="620" cy="250" r="45" fill="none" stroke="#3b82f6" stroke-width="18" stroke-dasharray="140 142"/>
  <circle cx="620" cy="250" r="45" fill="none" stroke="#f59e0b" stroke-width="18" stroke-dasharray="0 0 100 182" stroke-dashoffset="-40"/>
  <rect x="545" y="320" width="8" height="8" rx="2" fill="#3b82f6"/>
  <text x="558" y="328" font-size="9" fill="#64748b">VIP (30)</text>
  <rect x="630" y="320" width="8" height="8" rx="2" fill="#f59e0b"/>
  <text x="643" y="328" font-size="9" fill="#64748b">Reguler (15)</text>

  <!-- Event info -->
  <rect x="196" y="368" width="594" height="100" rx="8" fill="#f8fafc" stroke="#e2e8f0" stroke-width="1"/>
  <text x="212" y="392" font-size="11" font-weight="bold" fill="#475569">Informasi Event</text>
  <text x="212" y="412" font-size="10" fill="#64748b">Tanggal: 15 Juli 2026</text>
  <text x="212" y="428" font-size="10" fill="#64748b">Waktu: 09:00 - 12:00 WIB</text>
  <text x="212" y="444" font-size="10" fill="#64748b">Lokasi: Gedung A, Politeknik Negeri Batam</text>
  <text x="212" y="460" font-size="10" fill="#64748b">Status: ● Active / Published</text>
</svg>