<svg xmlns="http://www.w3.org/2000/svg" viewBox="0 0 800 600" font-family="Inter, sans-serif">
  <rect width="800" height="600" fill="#fff"/>
  <rect x="0" y="0" width="180" height="600" fill="#1e293b"/>
  <rect x="12" y="12" width="156" height="24" rx="4" fill="#334155"/>
  <text x="24" y="29" font-size="11" fill="#94a3b8">☰  Ticketify</text>
  <rect x="12" y="52" width="156" height="28" rx="4" fill="none" stroke="#334155" stroke-width="1"/>
  <text x="24" y="70" font-size="11" fill="#94a3b8">■  Dashboard</text>
  <rect x="12" y="86" width="156" height="28" rx="4" fill="none" stroke="#334155" stroke-width="1"/>
  <text x="24" y="104" font-size="11" fill="#94a3b8">■  Published</text>
  <rect x="12" y="120" width="156" height="28" rx="4" fill="none" stroke="#334155" stroke-width="1"/>
  <text x="24" y="138" font-size="11" fill="#94a3b8">■  Pending</text>
  <rect x="12" y="154" width="156" height="28" rx="4" fill="none" stroke="#334155" stroke-width="1"/>
  <text x="24" y="172" font-size="11" fill="#94a3b8">■  Users</text>
  <rect x="12" y="188" width="156" height="28" rx="4" fill="none" stroke="#334155" stroke-width="1"/>
  <text x="24" y="206" font-size="11" fill="#94a3b8">■  Roles</text>
  <rect x="12" y="222" width="156" height="28" rx="4" fill="none" stroke="#334155" stroke-width="1"/>
  <text x="24" y="240" font-size="11" fill="#94a3b8">■  Categories</text>
  <rect x="12" y="256" width="156" height="28" rx="4" fill="#3b82f6"/>
  <text x="24" y="274" font-size="11" fill="#fff">■  Statistik</text>

  <rect x="180" y="0" width="620" height="48" fill="#f8fafc"/>
  <line x1="180" y1="48" x2="800" y2="48" stroke="#e2e8f0" stroke-width="1"/>
  <text x="196" y="24" font-size="11" fill="#64748b">Statistik Event  ›  PESERTA</text>
  <text x="196" y="40" font-size="15" font-weight="bold" fill="#1e293b">Peserta — Workshop AI</text>

  <!-- Table header -->
  <rect x="196" y="64" width="594" height="30" rx="6 6 0 0" fill="#f8fafc" stroke="#e2e8f0" stroke-width="1"/>
  <text x="206" y="84" font-size="9" font-weight="bold" fill="#64748b">No</text>
  <text x="240" y="84" font-size="9" font-weight="bold" fill="#64748b">Peserta</text>
  <text x="400" y="84" font-size="9" font-weight="bold" fill="#64748b">Kontak</text>
  <text x="500" y="84" font-size="9" font-weight="bold" fill="#64748b">Kategori</text>
  <text x="570" y="84" font-size="9" font-weight="bold" fill="#64748b">Kode</text>
  <text x="660" y="84" font-size="9" font-weight="bold" fill="#64748b">Waktu Beli</text>

  <!-- Table rows -->
  <rect x="196" y="94" width="594" height="36" fill="#fff" stroke="#e2e8f0" stroke-width="1"/>
  <text x="206" y="116" font-size="10" fill="#64748b">1</text>
  <circle cx="230" cy="112" r="10" fill="#e2e8f0"/>
  <text x="246" y="116" font-size="10" fill="#1e293b">Andi Pratama</text>
  <text x="380" y="116" font-size="9" fill="#64748b">62812xxxx</text>
  <rect x="490" y="102" width="50" height="18" rx="4" fill="#eff6ff"/>
  <text x="500" y="114" font-size="8" fill="#3b82f6">VIP</text>
  <text x="560" y="116" font-size="8" fill="#64748b">ABC123</text>
  <text x="640" y="116" font-size="9" fill="#64748b">15 Jul 09:00</text>

  <rect x="196" y="130" width="594" height="36" fill="#f8fafc" stroke="#e2e8f0" stroke-width="1"/>
  <text x="206" y="152" font-size="10" fill="#64748b">2</text>
  <circle cx="230" cy="148" r="10" fill="#e2e8f0"/>
  <text x="246" y="152" font-size="10" fill="#1e293b">Siti Rahma</text>
  <text x="380" y="152" font-size="9" fill="#64748b">62855xxxx</text>
  <rect x="490" y="138" width="50" height="18" rx="4" fill="#f0fdf4"/>
  <text x="496" y="150" font-size="8" fill="#16a34a">Reguler</text>
  <text x="560" y="152" font-size="8" fill="#64748b">XYZ789</text>
  <text x="640" y="152" font-size="9" fill="#64748b">14 Jul 14:30</text>

  <rect x="196" y="166" width="594" height="36" fill="#fff" stroke="#e2e8f0" stroke-width="1"/>
  <text x="206" y="188" font-size="10" fill="#64748b">3</text>
  <circle cx="230" cy="184" r="10" fill="#e2e8f0"/>
  <text x="246" y="188" font-size="10" fill="#1e293b">Budi Santoso</text>
  <text x="380" y="188" font-size="9" fill="#64748b">62821xxxx</text>
  <rect x="490" y="174" width="50" height="18" rx="4" fill="#eff6ff"/>
  <text x="500" y="186" font-size="8" fill="#3b82f6">VIP</text>
  <text x="560" y="188" font-size="8" fill="#64748b">DEF456</text>
  <text x="640" y="188" font-size="9" fill="#64748b">13 Jul 10:00</text>

  <!-- Pagination -->
  <text x="196" y="230" font-size="10" fill="#64748b">Showing 1 to 3 of 45 Attendees</text>
  <rect x="540" y="216" width="70" height="24" rx="6" fill="#f1f5f9" stroke="#e2e8f0" stroke-width="1"/>
  <text x="560" y="232" font-size="10" fill="#64748b">← Prev</text>
  <rect x="618" y="216" width="70" height="24" rx="6" fill="#f1f5f9" stroke="#e2e8f0" stroke-width="1"/>
  <text x="638" y="232" font-size="10" fill="#64748b">Next →</text>
</svg>